<svg xmlns="http://www.w3.org/2000/svg" width="24" height="24" fill="none" stroke="#1f1f24" stroke-width="1.6" stroke-linecap="round" stroke-linejoin="round">
  <path d="M10.5 3h3l.6 2.4a6.2 6.2 0 0 1 1.9.8l2.2-1.1 1.5 2.6-2 1.5a6.4 6.4 0 0 1 .1 1.2 6.4 6.4 0 0 1-.1 1.2l2 1.5-1.5 2.6-2.2-1.1a6.2 6.2 0 0 1-1.9.8l-.6 2.4h-3l-.6-2.4a6.2 6.2 0 0 1-1.9-.8l-2.2 1.1-1.5-2.6 2-1.5a6.4 6.4 0 0 1-.1-1.2 6.4 6.4 0 0 1 .1-1.2l-2-1.5 1.5-2.6 2.2 1.1a6.2 6.2 0 0 1 1.9-.8z"/>
  <circle cx="12" cy="12" r="2.4"/>
</svg>
